# Blender 3.6.1
# www.blender.org
mtllib house-floor1.mtl
o Plane.001
v -1.103659 1.088805 -0.487581
v -1.000000 0.000000 -1.149230
v -1.000000 1.088805 -0.487581
v -1.000000 0.000000 -0.586177
v -1.894375 1.088805 -2.104903
v -3.156623 1.088805 -2.104903
v -1.779504 1.088805 -0.487581
v -1.894375 1.088805 -0.487581
v -1.000000 0.000000 -0.073534
v -1.103659 0.000000 -0.073534
v -1.894375 1.088805 0.025731
v -3.782866 0.000000 -1.021944
v -1.779504 0.000000 -0.586177
v -1.485539 1.088805 0.025731
v -5.151544 0.000000 -1.115620
v -3.871965 1.088805 -2.000000
v -5.042521 0.000000 -1.115620
v -1.894375 0.000000 -0.073534
v -3.782866 1.088805 -0.454352
v -3.871965 1.088805 -0.454352
v -1.485539 0.000000 -0.073534
v -5.151544 1.088805 -1.021944
v -2.084312 0.000000 -0.073534
v -2.084312 0.000000 0.025731
v -5.042521 1.088805 -1.021944
v -1.894375 0.000000 -2.000000
v -5.151544 0.000000 0.734635
v -5.151544 0.000000 0.618225
v -5.042521 1.088805 0.734635
v -5.042521 1.088805 0.618225
v -1.103659 1.088805 -2.000000
v -1.000000 0.000000 -2.104903
v -1.103659 0.000000 -1.734345
v -1.000000 0.000000 -1.734345
v -3.893432 1.088805 0.618225
v -1.103659 1.088805 -2.104903
v 0.551097 1.088805 0.734635
v -3.782866 0.000000 -0.150759
v -3.893432 0.000000 0.734635
v 0.448692 1.088805 0.618225
v -3.782866 0.000000 0.734635
v -3.782866 0.000000 0.618225
v -1.000000 0.000000 0.511499
v -1.103659 0.000000 0.734635
v -1.103659 0.000000 0.618225
v -1.000000 0.000000 0.734635
v -1.000000 0.000000 0.618225
v 0.551097 1.088805 -2.104903
v 0.448692 1.088805 -2.104903
v 0.448692 0.000000 0.734635
v 0.551097 0.000000 0.618225
v 0.448692 1.088805 -2.000000
v 0.551097 1.088805 -2.000000
v -3.893432 0.000000 -0.150759
v -1.000000 1.088805 -2.000000
v -1.103659 1.088805 0.511499
v -1.779504 0.000000 -2.104903
v -1.779504 1.088805 -2.000000
v -3.871965 1.088805 -1.021944
v -1.779504 0.000000 -0.073534
v -1.894375 0.000000 -0.586177
v -1.177116 0.000000 -0.073534
v -3.782866 1.088805 -1.115620
v -3.871965 0.000000 -1.115620
v -1.177116 0.000000 0.025731
v -3.782866 1.088805 -2.000000
v -3.871965 1.088805 -2.104903
v -1.779504 1.088805 0.025731
v -1.103659 0.000000 -0.586177
v -3.274029 1.088805 -0.073534
v -1.000000 1.088805 0.025731
v -3.782866 0.000000 -2.104903
v -3.274029 0.000000 -2.000000
v -3.274029 0.000000 -2.104903
v -3.156623 0.000000 -2.000000
v -1.103659 1.088805 0.025731
v -1.000000 0.000000 0.092806
v -3.274029 1.088805 0.025731
v -2.432801 1.088805 -0.073534
v -3.156623 0.000000 -0.073534
v -2.432801 1.088805 0.025731
v -3.156623 0.000000 0.025731
v -1.103659 1.088805 -1.149230
v -1.103659 1.088805 0.092806
v -1.103659 0.000000 0.092806
v -3.156623 1.088805 0.025731
v -1.103659 0.000000 -1.149230
v -2.432801 0.000000 0.025731
v -3.156623 1.088805 -0.073534
v -2.432801 0.000000 -0.073534
v -1.000000 1.088805 0.092806
v -3.274029 0.000000 0.025731
v -1.103659 0.000000 0.025731
v -1.000000 0.000000 0.025731
v -3.156623 1.088805 -2.000000
v -3.274029 0.000000 -0.073534
v -3.274029 1.088805 -2.104903
v -3.274029 1.088805 -2.000000
v -3.782866 1.088805 -2.104903
v -1.103659 1.088805 -0.586177
v -1.177116 1.088805 0.025731
v -3.871965 1.088805 -1.115620
v -1.177116 1.088805 -0.073534
v -1.894375 1.088805 -0.586177
v -1.779504 0.000000 0.025731
v -3.871965 0.000000 -2.104903
v -3.782866 0.000000 -2.000000
v -3.782866 0.000000 -1.115620
v -1.779504 1.088805 -0.073534
v -3.871965 0.000000 -1.021944
v -1.779504 0.000000 -2.000000
v -1.779504 1.088805 -2.104903
v -3.893432 1.088805 -0.150759
v -1.103659 0.000000 0.511499
v -1.000000 0.000000 -2.000000
v 0.551097 1.088805 0.618225
v 0.551097 0.000000 -2.000000
v 0.448692 0.000000 -2.000000
v 0.448692 1.088805 0.734635
v 0.448692 0.000000 -2.104903
v -1.000000 1.088805 0.618225
v 0.551097 0.000000 -2.104903
v 0.448692 0.000000 0.618225
v -1.000000 1.088805 0.734635
v -1.103659 1.088805 0.618225
v 0.551097 0.000000 0.734635
v -1.103659 1.088805 0.734635
v -1.000000 1.088805 0.511499
v -3.782866 1.088805 0.618225
v -3.782866 1.088805 0.734635
v -3.893432 1.088805 0.734635
v -1.103659 0.000000 -2.104903
v -3.782866 1.088805 -0.150759
v -1.000000 1.088805 -1.734345
v -3.893432 0.000000 0.618225
v -1.103659 1.088805 -1.734345
v -1.000000 1.088805 -2.104903
v -1.103659 0.000000 -2.000000
v -5.042521 0.000000 0.618225
v -5.042521 0.000000 0.734635
v -5.151544 1.088805 0.618225
v -5.151544 1.088805 0.734635
v -5.042521 0.000000 -1.021944
v -5.151544 0.000000 -1.021944
v -1.894375 1.088805 -2.000000
v -2.084312 1.088805 0.025731
v -2.084312 1.088805 -0.073534
v -1.485539 1.088805 -0.073534
v -1.894375 1.088805 -0.073534
v -5.042521 1.088805 -1.115620
v -3.871965 0.000000 -0.454352
v -3.782866 0.000000 -0.454352
v -3.871965 0.000000 -2.000000
v -1.485539 0.000000 0.025731
v -5.151544 1.088805 -1.115620
v -1.894375 0.000000 0.025731
v -1.779504 1.088805 -0.586177
v -1.894375 0.000000 -0.487581
v -1.779504 0.000000 -0.487581
v -3.156623 0.000000 -2.104903
v -3.782866 1.088805 -1.021944
v -1.894375 0.000000 -2.104903
v -1.103659 1.088805 -0.073534
v -1.000000 1.088805 -0.073534
v -1.000000 0.000000 -0.487581
v -1.103659 0.000000 -0.487581
v -1.000000 1.088805 -0.586177
v -1.000000 1.088805 -1.149230
vn 1.0000 -0.0000 -0.0000
vn -0.0000 -0.0000 -1.0000
vn -1.0000 -0.0000 -0.0000
vn -0.0000 -0.0000 1.0000
vn -0.0000 -1.0000 -0.0000
vn -0.0000 1.0000 -0.0000
vt 0.000000 0.546669
vt 0.000000 0.467287
vt 1.000000 0.133926
vt 1.000000 0.054004
vt 0.000000 0.133926
vt 0.000000 1.000000
vt 1.000000 1.000000
vt 1.000000 0.000000
vt 0.000000 0.000000
vt 1.000000 0.546669
vt 1.000000 0.467287
vt 0.000000 0.054004
s 0
f 75/1/1 95/1/1 89/1/1 80/1/1
f 51/1/1 116/1/1 37/1/1 126/1/1
f 106/1/2 67/1/2 99/1/2 72/1/2
f 74/1/2 97/1/2 6/1/2 160/1/2
f 158/2/3 8/2/3 104/1/3 61/1/3
f 44/1/4 127/1/4 130/1/4 41/1/4
f 152/1/4 19/1/4 20/1/4 151/1/4
f 126/1/4 37/1/4 119/1/4 50/1/4
f 73/1/4 98/1/4 66/1/4 107/1/4
f 108/1/1 63/1/1 161/1/1 12/1/1
f 64/1/3 102/1/3 16/1/3 153/1/3
f 118/1/4 52/1/4 55/1/4 115/1/4
f 61/1/5 26/1/5 111/1/5 13/1/5
f 26/1/5 162/1/5 57/1/5 111/1/5
f 96/1/3 70/1/3 98/1/3 73/1/3
f 92/1/3 78/1/3 70/1/3 96/1/3
f 159/2/1 7/2/1 109/2/1 60/2/1
f 41/1/4 130/1/4 131/1/4 39/1/4
f 82/1/4 86/1/4 78/1/4 92/1/4
f 90/1/1 79/1/1 81/1/1 88/1/1
f 38/1/1 133/1/1 129/1/1 42/1/1
f 122/1/1 48/1/1 53/1/1 117/1/1
f 88/1/4 81/1/4 86/1/4 82/1/4
f 123/1/3 40/1/3 52/1/3 118/1/3
f 80/1/2 89/1/2 79/1/2 90/1/2
f 9/3/1 164/3/1 71/4/1 94/4/1
f 23/2/2 147/2/2 149/2/2 18/2/2
f 42/1/2 129/1/2 125/1/2 45/1/2
f 62/5/2 103/5/2 163/5/2 10/5/2
f 87/6/2 83/6/2 168/7/2 2/7/2
f 24/2/3 146/2/3 147/2/3 23/2/3
f 57/1/2 112/1/2 36/1/2 132/1/2
f 135/1/3 35/1/3 113/1/3 54/1/3
f 54/1/2 113/1/2 133/1/2 38/1/2
f 77/8/4 91/8/4 84/9/4 85/9/4
f 13/1/2 157/1/2 100/1/2 69/1/2
f 27/1/3 142/1/3 141/1/3 28/1/3
f 72/1/2 99/1/2 97/1/2 74/1/2
f 110/1/4 59/1/4 25/1/4 143/1/4
f 69/1/3 100/1/3 83/6/3 87/6/3
f 12/1/1 161/1/1 19/1/1 152/1/1
f 17/1/2 150/1/2 102/1/2 64/1/2
f 69/1/5 87/6/5 2/7/5 4/10/5
f 166/2/5 69/1/5 4/10/5 165/11/5
f 10/5/5 166/2/5 165/11/5 9/3/5
f 85/9/5 93/12/5 94/4/5 77/8/5
f 93/12/5 10/5/5 9/3/5 94/4/5
f 93/12/5 65/12/5 62/5/5 10/5/5
f 166/2/5 159/2/5 13/1/5 69/1/5
f 159/2/5 158/2/5 61/1/5 13/1/5
f 159/2/5 60/2/5 18/2/5 158/2/5
f 60/2/5 105/2/5 156/2/5 18/2/5
f 60/2/5 21/2/5 154/2/5 105/2/5
f 156/2/5 24/2/5 23/2/5 18/2/5
f 57/1/5 132/1/5 138/1/5 111/1/5
f 132/1/5 32/1/5 115/1/5 138/1/5
f 115/1/5 34/1/5 33/1/5 138/1/5
f 32/1/5 120/1/5 118/1/5 115/1/5
f 120/1/5 122/1/5 117/1/5 118/1/5
f 117/1/5 51/1/5 123/1/5 118/1/5
f 51/1/5 126/1/5 50/1/5 123/1/5
f 50/1/5 46/1/5 47/1/5 123/1/5
f 46/1/5 44/1/5 45/1/5 47/1/5
f 45/1/5 114/1/5 43/1/5 47/1/5
f 44/1/5 41/1/5 42/1/5 45/1/5
f 41/1/5 39/1/5 135/1/5 42/1/5
f 135/1/5 54/1/5 38/1/5 42/1/5
f 39/1/5 140/1/5 139/1/5 135/1/5
f 140/1/5 27/1/5 28/1/5 139/1/5
f 28/1/5 144/1/5 143/1/5 139/1/5
f 144/1/5 15/1/5 17/1/5 143/1/5
f 17/1/5 64/1/5 110/1/5 143/1/5
f 64/1/5 108/1/5 12/1/5 110/1/5
f 12/1/5 152/1/5 151/1/5 110/1/5
f 64/1/5 153/1/5 107/1/5 108/1/5
f 153/1/5 106/1/5 72/1/5 107/1/5
f 72/1/5 74/1/5 73/1/5 107/1/5
f 74/1/5 160/1/5 75/1/5 73/1/5
f 160/1/5 162/1/5 26/1/5 75/1/5
f 75/1/5 80/1/5 96/1/5 73/1/5
f 80/1/5 82/1/5 92/1/5 96/1/5
f 80/1/5 90/1/5 88/1/5 82/1/5
f 160/1/2 6/1/2 5/1/2 162/1/2
f 151/1/3 20/1/3 59/1/3 110/1/3
f 105/2/4 68/2/4 11/2/4 156/2/4
f 153/1/3 16/1/3 67/1/3 106/1/3
f 65/12/3 101/12/3 103/5/3 62/5/3
f 94/4/1 71/4/1 91/8/1 77/8/1
f 154/2/4 14/2/4 68/2/4 105/2/4
f 166/2/4 1/2/4 7/2/4 159/2/4
f 143/1/1 25/1/1 30/1/1 139/1/1
f 2/7/1 168/7/1 167/10/1 4/10/1
f 60/2/2 109/2/2 148/2/2 21/2/2
f 144/1/3 22/1/3 155/1/3 15/1/3
f 32/1/2 137/1/2 49/1/2 120/1/2
f 15/1/2 155/1/2 150/1/2 17/1/2
f 28/1/3 141/1/3 22/1/3 144/1/3
f 4/10/1 167/10/1 3/11/1 165/11/1
f 115/1/1 55/1/1 134/1/1 34/1/1
f 140/1/4 29/1/4 142/1/4 27/1/4
f 165/11/1 3/11/1 164/3/1 9/3/1
f 10/5/3 163/5/3 1/2/3 166/2/3
f 120/1/2 49/1/2 48/1/2 122/1/2
f 34/1/4 134/1/4 136/1/4 33/1/4
f 139/1/2 30/1/2 35/1/2 135/1/2
f 85/9/3 84/9/3 76/12/3 93/12/3
f 39/1/4 131/1/4 29/1/4 140/1/4
f 18/2/3 149/2/3 8/2/3 158/2/3
f 61/1/3 104/1/3 145/1/3 26/1/3
f 21/2/1 148/2/1 14/2/1 154/2/1
f 117/1/1 53/1/1 116/1/1 51/1/1
f 107/1/1 66/1/1 63/1/1 108/1/1
f 156/2/4 11/2/4 146/2/4 24/2/4
f 114/1/2 56/1/2 128/1/2 43/1/2
f 111/1/1 58/1/1 157/1/1 13/1/1
f 50/1/4 119/1/4 124/1/4 46/1/4
f 162/1/2 5/1/2 112/1/2 57/1/2
f 132/1/2 36/1/2 137/1/2 32/1/2
f 93/12/4 76/12/4 101/12/4 65/12/4
f 46/1/4 124/1/4 127/1/4 44/1/4
f 138/1/4 31/1/4 58/1/4 111/1/4
f 33/1/3 136/1/3 31/1/3 138/1/3
f 43/1/1 128/1/1 121/1/1 47/1/1
f 47/1/2 121/1/2 40/1/2 123/1/2
f 45/1/3 125/1/3 56/1/3 114/1/3
f 26/1/4 145/1/4 95/1/4 75/1/4
f 89/1/6 86/1/6 81/1/6 79/1/6
f 89/1/6 70/1/6 78/1/6 86/1/6
f 95/1/6 98/1/6 70/1/6 89/1/6
f 6/1/6 95/1/6 145/1/6 5/1/6
f 97/1/6 98/1/6 95/1/6 6/1/6
f 99/1/6 66/1/6 98/1/6 97/1/6
f 16/1/6 66/1/6 99/1/6 67/1/6
f 102/1/6 63/1/6 66/1/6 16/1/6
f 161/1/6 59/1/6 20/1/6 19/1/6
f 102/1/6 59/1/6 161/1/6 63/1/6
f 150/1/6 25/1/6 59/1/6 102/1/6
f 22/1/6 25/1/6 150/1/6 155/1/6
f 141/1/6 30/1/6 25/1/6 22/1/6
f 29/1/6 30/1/6 141/1/6 142/1/6
f 131/1/6 35/1/6 30/1/6 29/1/6
f 35/1/6 129/1/6 133/1/6 113/1/6
f 130/1/6 129/1/6 35/1/6 131/1/6
f 127/1/6 125/1/6 129/1/6 130/1/6
f 125/1/6 121/1/6 128/1/6 56/1/6
f 124/1/6 121/1/6 125/1/6 127/1/6
f 119/1/6 40/1/6 121/1/6 124/1/6
f 116/1/6 40/1/6 119/1/6 37/1/6
f 53/1/6 52/1/6 40/1/6 116/1/6
f 49/1/6 52/1/6 53/1/6 48/1/6
f 137/1/6 55/1/6 52/1/6 49/1/6
f 55/1/6 31/1/6 136/1/6 134/1/6
f 36/1/6 31/1/6 55/1/6 137/1/6
f 112/1/6 58/1/6 31/1/6 36/1/6
f 11/2/6 149/2/6 147/2/6 146/2/6
f 109/2/6 68/2/6 14/2/6 148/2/6
f 109/2/6 149/2/6 11/2/6 68/2/6
f 7/2/6 8/2/6 149/2/6 109/2/6
f 7/2/6 157/1/6 104/1/6 8/2/6
f 1/2/6 100/1/6 157/1/6 7/2/6
f 76/12/6 163/5/6 103/5/6 101/12/6
f 76/12/6 71/4/6 164/3/6 163/5/6
f 84/9/6 91/8/6 71/4/6 76/12/6
f 163/5/6 164/3/6 3/11/6 1/2/6
f 1/2/6 3/11/6 167/10/6 100/1/6
f 100/1/6 167/10/6 168/7/6 83/6/6
f 145/1/6 58/1/6 112/1/6 5/1/6
f 104/1/6 157/1/6 58/1/6 145/1/6
