# Blender 3.6.2
# www.blender.org
mtllib arrow.mtl
o Plane
v -0.057792 0.000000 0.000000
v -0.057792 0.000000 -2.000000
v 0.000000 0.000000 0.000000
v 0.000000 0.000000 -2.000000
v -0.196018 0.000000 -1.738098
v 0.000000 0.000000 -2.385578
v 0.057792 0.000000 0.000000
v 0.057792 0.000000 -2.000000
v 0.196018 0.000000 -1.738098
vn -0.0000 1.0000 -0.0000
vt 0.000000 0.000000
vt 0.500000 0.000000
vt 0.500000 1.000000
vt 0.000000 1.000000
s 0
f 1/1/1 3/2/1 4/3/1 2/4/1
f 2/4/1 4/3/1 6/3/1 5/4/1
f 7/1/1 8/4/1 4/3/1 3/2/1
f 8/4/1 9/4/1 6/3/1 4/3/1
